<svg xmlns="http://www.w3.org/2000/svg" viewBox="0 0 749 206.42"><defs><style>.cls-1{fill:#e11075;}.cls-2{fill:#282827;}.cls-3{fill:#8d8d8d;}.cls-4{fill:#fff;}.cls-5{fill:#dd212d;}.cls-6{fill:#e00d7b;}.cls-7{fill:#e06426;}.cls-8{fill:#3f4040;}</style></defs><title>Asset 1</title><g id="Layer_2" data-name="Layer 2"><g id="Layer_1-2" data-name="Layer 1"><path class="cls-1" d="M233,60V86.2h-5.9V60h-5.89V54.4h17.68V60Z"/><path class="cls-1" d="M242.85,86.2V54.4h17.09V60H248.75v7.49h10.71v5.64H248.75v7.4h11.19V86.2Z"/><path class="cls-1" d="M264.29,86.2V54.4h5.89V80.56h9.73V86.2Z"/><path class="cls-1" d="M284.17,86.2V54.4h17.08V60H290.07v7.49h10.71v5.64H290.07v7.4h11.18V86.2Z"/><path class="cls-1" d="M321.36,86.2l-9.86-14v14h-5.89V54.4h5.89V68.13l9.86-13.73h7.1L316.5,70l12,16.18Z"/><path class="cls-1" d="M344.52,86.76a16.46,16.46,0,1,1,16.4-16.48A16.2,16.2,0,0,1,344.52,86.76Zm0-27.24a10.78,10.78,0,0,0,0,21.56A10.36,10.36,0,0,0,355,70.36,10.54,10.54,0,0,0,344.48,59.52Z"/><path class="cls-1" d="M391,86.2V62.36l-8.3,23.84h-4.83l-8.3-23.84V86.2h-5.9V54.4h8.09l8.57,24.1,8.48-24.1h8.09V86.2Z"/><path class="cls-2" d="M255.13,162.16h-9.49L221.22,99.51h12.21l16.87,47.65,16.87-47.65h12.2Z"/><path class="cls-2" d="M283.49,162.16V99.51h11.62v62.65Z"/><path class="cls-2" d="M340.48,158.69c-5.09,2.54-10.77,3.47-20.27,3.47H305.63V99.51H320c9.83,0,17.29,1.53,22.21,4.5,8.73,5.25,13.65,15.09,13.65,27C355.82,143.6,350.14,153.94,340.48,158.69Zm-5.94-45.53c-3.64-1.86-7.63-2.54-15-2.54h-2.29v40.44h2.54c6.95,0,11.78-.85,15.26-2.8,5.59-3,9.07-9.75,9.07-17.29C344.12,122.91,340.48,116.21,334.54,113.16Z"/><path class="cls-2" d="M363.48,162.16V99.51h33.65v11.11h-22v14.75H396.2v11.11H375.09v14.58h22v11.1Z"/><path class="cls-2" d="M434.87,163.26c-18.39,0-33-14.32-33-32.38,0-18.31,14.41-32.47,33.06-32.47a32.24,32.24,0,0,1,32.21,32.39C467.17,149.11,453.1,163.26,434.87,163.26Zm-.08-53.66a21.24,21.24,0,0,0,0,42.47c11.87,0,20.68-9.07,20.68-21.1S446.4,109.6,434.79,109.6ZM431.4,96.12l-4.33-6.61,19-11.36,4.58,7.8Z"/><path class="cls-2" d="M513.73,154a17,17,0,0,1-7,6.41,24.35,24.35,0,0,1-11.33,2.42,29.48,29.48,0,0,1-11.77-2.24,20,20,0,0,1-8.3-6.46,18.58,18.58,0,0,1-3.55-9.84h13.17a10,10,0,0,0,3,6.28,9.52,9.52,0,0,0,6.9,2.51,8,8,0,0,0,5.93-2.07,7.19,7.19,0,0,0,2.06-5.31,7,7,0,0,0-1.67-4.79,12.12,12.12,0,0,0-4.22-3c-1.69-.76-4-1.64-7-2.63a69.28,69.28,0,0,1-9.49-3.83,17.38,17.38,0,0,1-6.28-5.49,15.69,15.69,0,0,1-2.59-9.39q0-8,5.75-12.61t15.24-4.61q9.84,0,15.68,4.74a17.87,17.87,0,0,1,6.63,12.65H501.52a9.34,9.34,0,0,0-2.81-5.49,8.74,8.74,0,0,0-6.24-2.15,8.23,8.23,0,0,0-5.53,1.8,7.32,7.32,0,0,0-.48,9.75,12.35,12.35,0,0,0,4.13,2.94,66.11,66.11,0,0,0,6.8,2.55A91,91,0,0,1,507.1,130a17.14,17.14,0,0,1,6.37,5.54,16.31,16.31,0,0,1,2.63,9.66A16.84,16.84,0,0,1,513.73,154Z"/><path class="cls-3" d="M556.73,163.26c-19.16,0-34.08-14.24-34.08-32.55,0-18.14,14.58-32.3,33.23-32.3,13.65,0,25.52,7.12,29.67,17.8h-7c-4.32-7.62-12.46-12-22.12-12-15.43,0-27.38,11.61-27.38,26.7,0,14.92,12.12,26.62,27.46,26.62,12.38,0,23.06-8.65,25.35-18.57h-35v-5.68h42.55A32.33,32.33,0,0,1,556.73,163.26Z"/><path class="cls-3" d="M640.36,162.16l-9.07-21.11H602.13L593,162.16h-6.61l26.87-62.65h7l27,62.65Zm-23.57-55.52L604.5,135.37h24.33Zm-3.56-10.26-2.88-4.75,16.36-9.83,2.88,4.91Z"/><path class="cls-3" d="M652.23,162.16V99.51h6.28v57h25.94v5.68Z"/><path class="cls-3" d="M742.13,162.16l-9.07-21.11H703.9l-9.15,21.11h-6.62L715,99.51h7l27,62.65Zm-23.56-55.52-12.3,28.73H730.6Z"/><circle class="cls-4" cx="84.35" cy="107.72" r="80.85"/><path class="cls-3" d="M84.35,33A74.78,74.78,0,1,1,9.58,107.72,74.77,74.77,0,0,1,84.35,33m0-9.58a84.35,84.35,0,0,0-59.64,144A84.35,84.35,0,1,0,144,48.08,83.82,83.82,0,0,0,84.35,23.37Z"/><polygon class="cls-5" points="51.75 0 46.87 21.69 122.75 65.5 51.75 0"/><polygon class="cls-6" points="8.94 190.07 26.77 184.51 26.77 110.92 8.94 190.07"/><polygon class="cls-7" points="178.75 117.16 103.54 160.59 194.95 132.1 178.75 117.16"/><polygon class="cls-4" points="41.88 39.29 160.41 107.72 41.88 176.16 41.88 39.29"/><path class="cls-3" d="M26.17,9V206.42l170.94-98.7ZM47.06,47.31l104.65,60.41L47.06,168.14Z"/><polygon class="cls-8" points="67.03 82.18 111.28 107.72 67.03 133.27 67.03 82.18"/></g></g></svg>